<svg width="482" height="400" viewBox="0 0 482 400" fill="none" xmlns="http://www.w3.org/2000/svg">
<g filter="url(#filter0_ddd)">
<path d="M247.702 328.562C199.782 328.562 156.803 300.026 138.194 255.872C137.241 253.61 138.301 250.992 140.571 250.04C142.833 249.087 145.451 250.147 146.403 252.417C163.614 293.268 203.379 319.658 247.711 319.658C308.301 319.658 357.593 270.367 357.593 209.777C357.593 203.624 357.076 197.454 356.07 191.444C355.66 189.022 357.299 186.725 359.721 186.315C362.142 185.915 364.44 187.544 364.849 189.966C365.944 196.466 366.496 203.135 366.496 209.777C366.487 275.273 313.207 328.562 247.702 328.562Z" fill="#FF257B"/>
<path d="M141.862 170.92C141.301 170.92 140.731 170.814 140.179 170.591C137.9 169.656 136.814 167.056 137.749 164.786C156.108 119.964 199.274 91 247.711 91C277.075 91 305.274 101.8 327.097 121.424C328.922 123.071 329.073 125.885 327.435 127.71C325.788 129.536 322.974 129.687 321.149 128.049C300.964 109.903 274.885 99.9127 247.719 99.9127C202.907 99.9127 162.982 126.704 145.994 168.169C145.272 169.879 143.616 170.92 141.862 170.92Z" fill="#FF257B"/>
</g>
<g filter="url(#filter1_ddd)">
<path d="M223.555 220.853C224.801 220.15 226.003 219.687 227.161 219.455C229.315 219.028 231.203 219.259 232.823 220.141C234.444 221.022 235.245 222.42 235.245 224.326C235.245 225.403 234.951 226.543 234.373 227.736C234.123 228.279 233.5 229.792 232.503 232.277C231.506 234.752 230.446 237.557 229.333 240.682C228.211 243.807 227.214 246.923 226.35 250.04C225.478 253.156 225.042 255.667 225.042 257.572C225.042 258.24 225.148 258.917 225.353 259.629C225.558 260.332 226.083 260.537 226.911 260.439C229.084 260.172 230.909 259.024 232.405 257.198C233.776 255.515 236.1 252.738 237.222 250.601C238.344 248.473 239.394 246.825 240.267 244.742C241.14 242.658 243.526 237.378 243.864 236.559C244.274 235.562 245.013 236.292 245.761 235.731C246.509 235.17 247.132 236.248 248.04 236.07C249.117 235.856 247.363 237.031 248.236 237.432C249.109 237.841 249.545 238.625 249.545 239.782C249.545 240.112 249.5 240.37 249.42 240.557C248.841 243.905 247.844 247.547 246.437 251.473C245.031 255.4 243.926 257.982 241.816 261.472C239.697 264.962 235.521 269.316 232.743 271.898C229.965 274.481 225.674 276.359 222.192 277.045C218.96 277.686 216.369 277.303 214.419 275.905C212.469 274.507 211.08 272.442 210.252 269.699C207.519 273.065 204.403 275.994 200.921 278.514C197.44 281.025 193.789 282.663 189.978 283.411C187.325 283.936 184.983 283.945 182.953 283.429C180.923 282.921 179.223 282.013 177.851 280.704C176.48 279.404 175.447 277.739 174.744 275.718C174.041 273.697 173.684 271.489 173.684 269.085C173.684 264.936 174.664 260.395 176.605 255.444C178.555 250.503 181.146 245.775 184.378 241.278C187.61 236.782 191.367 232.846 195.632 229.472C199.906 226.097 204.322 223.96 208.881 223.061C210.626 222.714 213.716 222.732 214.58 222.812C215.434 222.892 218.729 223.845 219.147 225.011C220.358 223.115 222.317 221.556 223.555 220.853ZM196.015 266.191C197.645 264.936 199.301 263.386 200.983 261.534C202.666 259.691 204.349 257.688 206.032 255.524C207.715 253.37 209.264 251.215 210.698 249.06C211.41 246.158 212.149 243.433 212.915 240.878C213.68 238.322 214.419 236.087 215.132 234.164C211.864 235.437 208.133 237.459 204.919 240.281C201.705 243.095 198.669 245.89 196.069 249.167C193.469 252.444 191.314 255.587 190.094 258.65C186.675 267.242 189.952 270.866 196.015 266.191Z" fill="white"/>
<path d="M301.169 244.697C296.45 249.14 291.749 252.951 287.324 256.254C283.424 259.166 277.948 262.612 273.621 264.909C268.973 267.375 264.717 268.622 260.238 269.512C256.668 270.216 253.578 270.314 250.969 269.788C248.361 269.272 246.197 268.284 244.496 266.841C242.796 265.399 241.549 263.564 240.766 261.356C239.982 259.148 239.581 256.717 239.581 254.064C239.581 250.004 240.409 245.606 242.066 240.887C243.722 236.167 245.921 231.725 248.654 227.575C251.388 223.426 254.567 219.838 258.173 216.802C261.779 213.766 265.536 211.86 269.427 211.094C271.582 210.667 273.487 210.667 275.152 211.085C276.808 211.504 278.179 212.27 279.257 213.383C280.334 214.496 281.376 215.662 281.919 217.247C282.453 218.841 282.56 219.945 282.569 221.93C282.587 224.833 281.581 226.632 279.916 228.982C278.09 231.564 271.546 234.342 270.549 231.44C269.552 228.537 273.825 218.894 266.97 225.18C261.583 230.113 260.131 234.743 258.351 239.168C257.353 241.643 257.193 244.751 257.193 246.576C257.193 249.31 258.983 251.295 260.719 252.07C262.464 252.844 264.619 252.978 267.192 252.47C269.187 252.079 271.297 251.598 273.496 250.672C275.989 249.63 277.797 248.829 280.263 247.119C282.489 245.579 287.804 241.501 292.541 237.93L301.169 244.697Z" fill="white"/>
<path d="M315.353 231.297C313.162 233.692 308.586 238.474 305.852 240.869C306.102 241.332 306.502 241.893 306.502 241.893C307.001 242.587 307.624 243.086 308.372 243.389C309.12 243.7 309.93 243.851 310.794 243.843C311.666 243.834 312.512 243.754 313.34 243.584C315.495 243.157 317.65 242.231 319.813 240.815C321.968 239.391 323.98 237.69 325.85 235.705C327.72 233.719 329.394 231.538 330.89 229.169C332.386 226.801 333.543 224.459 334.371 222.135C334.701 221.156 335.244 220.39 335.992 219.829C336.74 219.268 337.523 218.903 338.351 218.743C341.254 218.173 342.705 219.33 342.705 222.233C341.957 226.525 340.408 230.799 338.04 235.037C335.68 239.275 332.813 243.139 329.456 246.621C326.1 250.102 322.387 253.076 318.327 255.542C314.266 258.009 310.153 259.647 306.013 260.466C302.78 261.107 299.976 261.16 297.616 260.635C295.257 260.11 293.307 259.166 291.767 257.813C290.235 256.459 289.069 254.696 288.285 252.533C287.502 250.369 287.101 248.001 287.101 245.427C287.101 241.367 287.956 236.942 289.647 232.17C291.348 227.397 293.627 222.865 296.486 218.565C299.344 214.264 302.665 210.542 306.44 207.39C310.215 204.238 314.168 202.253 318.318 201.434C321.799 200.748 324.292 201.087 325.779 202.449C327.275 203.811 328.014 205.699 328.014 208.103C328.014 210.338 327.569 212.866 326.331 215.591C324.987 218.591 319.537 226.738 315.353 231.297ZM310.064 216.419C305.558 221.601 303.546 227.914 303.787 229.668C304.713 229.089 310.981 223.8 313.964 220.337C317.819 215.84 319.315 212.555 319.671 210.347C316.288 211.077 313.545 212.412 310.064 216.419Z" fill="white"/>
<g filter="url(#filter2_d)">
<path d="M209.059 200.232C207.368 204.657 204.999 208.432 201.954 211.575C198.9 214.709 195.134 216.721 190.655 217.603C188.313 218.066 186.221 218.11 184.369 217.728C182.517 217.345 180.977 216.597 179.739 215.475C178.51 214.353 177.566 212.937 176.917 211.21C176.267 209.492 175.946 207.559 175.946 205.414C175.946 201.906 176.73 198.264 178.288 194.48C179.846 190.696 181.894 187.179 184.422 183.92C186.951 180.661 189.845 177.83 193.095 175.435C196.345 173.039 199.648 171.508 203.031 170.84C206.148 170.226 208.356 170.52 209.656 171.722C210.956 172.924 211.606 174.571 211.606 176.646C211.606 177.491 211.41 178.408 211.018 179.388C211.534 180.198 211.944 181.231 212.238 182.504C212.532 183.777 212.754 184.89 212.674 185.879C212.104 192.833 210.893 195.415 209.059 200.232ZM200.921 185.327C199.345 186.235 195.098 190.188 194.056 191.461C193.015 192.735 192.062 194.097 191.18 195.539C190.299 196.982 189.569 198.442 188.99 199.92C188.402 201.398 188.117 202.76 188.117 203.989C188.117 204.897 188.358 205.805 188.848 206.714C189.337 207.622 190.326 207.933 191.821 207.64C193.576 207.292 195.009 206.108 196.496 204.381C199.194 201.238 202.559 195.415 203.405 193.367C201.909 193.678 199.55 193.037 199.399 190.767C199.247 188.488 199.612 186.662 200.921 185.327Z" fill="white"/>
<path d="M280.833 198.941C279.791 198.593 278.963 198.041 278.349 197.293C277.734 196.537 277.289 195.62 277.031 194.533C276.773 193.447 276.541 192.379 276.345 191.31C276.149 189.859 275.918 188.505 275.66 187.259C275.401 186.012 274.912 185.166 274.199 184.721C271.475 187.01 269.053 189.227 266.943 191.363C264.833 193.5 263.319 195.602 262.411 197.667C262.277 198.211 262.215 198.682 262.215 199.065C262.215 199.448 262.215 199.813 262.215 200.134C262.215 201.496 261.921 202.467 261.342 203.036C260.755 203.606 260.007 203.98 259.099 204.158C258.449 204.283 257.736 204.301 256.953 204.194C256.169 204.087 255.439 203.749 254.762 203.17C254.077 202.591 253.516 201.728 253.062 200.588C252.608 199.448 252.376 197.899 252.376 195.949C252.376 192.966 252.893 189.191 253.934 184.632C254.976 180.073 256.258 175.167 257.781 169.896C259.303 164.625 260.942 159.176 262.696 153.54C264.45 147.904 266.035 142.544 267.468 137.451C268.118 135.047 269.365 133.115 271.217 131.646C273.069 130.177 274.93 129.26 276.817 128.886C278.509 128.556 279.916 128.681 281.055 129.268C282.195 129.856 282.756 130.898 282.756 132.385C282.756 133.293 282.525 134.246 282.07 135.243C280.708 138.306 279.346 141.627 277.984 145.206C276.621 148.786 275.286 152.445 273.995 156.176C272.695 159.906 271.466 163.637 270.291 167.377C269.124 171.116 268.047 174.704 267.076 178.141C268.501 176.752 269.952 175.417 271.413 174.117C272.873 172.826 274.235 171.526 275.499 170.244C276.764 168.953 277.921 167.67 278.954 166.397C279.996 165.124 280.806 163.806 281.385 162.462V161.491C281.385 160.325 281.607 159.221 282.07 158.188C282.525 157.155 283.121 156.256 283.869 155.49C284.617 154.724 285.445 154.092 286.353 153.585C287.261 153.077 288.205 152.73 289.176 152.543C290.93 152.196 292.506 152.454 293.895 153.318C295.293 154.181 295.987 155.811 295.987 158.215C295.987 161.01 295.025 163.762 293.111 166.477C291.197 169.193 288.837 171.864 286.05 174.5C286.763 175.337 287.217 176.263 287.413 177.296C287.609 178.328 287.769 179.388 287.902 180.465C288.036 181.997 288.098 183.332 288.098 184.472C288.098 185.612 288.552 186.084 289.461 185.905C290.306 185.736 291.215 184.971 292.185 183.617C293.156 182.264 294.099 180.723 295.008 179.014C295.916 177.313 296.708 175.639 297.394 174.01C298.079 172.381 298.542 171.25 298.81 170.618C299.13 169.843 299.602 169.229 300.225 168.783C300.84 168.338 301.472 168.053 302.122 167.92C302.968 167.751 303.724 167.831 304.41 168.151C305.096 168.472 305.434 169.086 305.434 169.994C305.434 170.128 305.416 170.226 305.389 170.297C305.354 170.368 305.345 170.466 305.345 170.6C304.829 173.235 304.009 176.093 302.914 179.165C301.81 182.237 300.412 185.149 298.729 187.882C297.038 190.616 295.043 193.011 292.737 195.059C290.431 197.106 287.822 198.415 284.893 198.994C283.228 199.297 281.866 199.288 280.833 198.941Z" fill="white"/>
<path d="M365.428 159.684C364.76 162.31 363.487 165.195 361.902 168.276C360.388 171.223 359.053 173.752 357.192 176.512C355.402 179.165 353.515 181.427 351.342 183.448C349.17 185.469 346.481 186.832 342.483 187.588C340.666 187.936 339.108 187.882 337.808 187.392C336.508 186.903 335.44 186.075 334.594 184.908C333.748 183.742 333.134 182.273 332.742 180.501C332.35 178.729 332.154 176.735 332.154 174.526C332.154 172.06 332.386 169.389 332.84 166.504C333.294 163.619 333.882 160.681 334.594 157.68C335.306 154.68 336.117 151.653 337.025 148.581C337.933 145.509 337.897 145.554 338.877 142.767L334.3 143.675C332.938 143.942 331.78 143.684 330.845 142.9C329.902 142.117 329.43 141.066 329.43 139.766C329.43 138.404 329.902 137.157 330.845 136.026C331.789 134.896 332.938 134.201 334.3 133.934L342.777 132.26C343.489 130.435 344.121 128.832 344.673 127.452C345.225 126.081 345.661 125.004 345.991 124.22C347.095 121.727 348.493 119.813 350.176 118.477C351.867 117.141 353.55 116.305 355.242 115.966C356.934 115.637 358.403 115.779 359.676 116.402C363.522 118.308 360.513 122.831 359.391 125.449C358.848 126.722 358.305 128.004 357.771 129.286L360.655 128.716C362.018 128.449 363.175 128.69 364.11 129.447C365.054 130.203 365.526 131.263 365.526 132.625C365.526 133.925 365.054 135.154 364.11 136.311C363.166 137.469 362.018 138.19 360.655 138.457L353.684 139.837C352.517 143.052 352.304 143.417 351.102 146.871C349.9 150.326 348.813 153.656 347.843 156.861C346.872 160.076 346.071 162.987 345.457 165.614C344.842 168.24 344.531 170.324 344.531 171.882C344.531 172.47 344.611 173.102 344.771 173.779C344.931 174.464 345.376 174.607 346.089 174.589C347.941 174.544 349.855 173.387 350.897 172.069C352.989 169.433 356.48 163.655 358.127 160.752C358.554 160.004 359.863 157.956 360.495 157.538C361.127 157.128 361.768 156.87 362.418 156.781C363.264 156.665 364.012 156.772 364.662 157.146C365.784 157.814 365.428 159.684 365.428 159.684Z" fill="white"/>
<path d="M122.265 264.401C118.249 264.731 115.836 262.843 116.656 255.124C116.985 252.025 117.706 247.716 118.694 242.534C119.683 237.352 120.903 231.724 122.363 225.67C123.823 219.615 125.417 213.427 127.144 207.105C128.872 200.793 130.483 194.97 131.979 189.654C132.317 188.363 132.932 187.401 133.644 186.377C134.356 185.353 135.354 184.525 136.413 183.804C137.357 183.154 138.648 182.388 139.663 181.917C140.678 181.445 141.702 181.106 142.717 180.902C144.275 180.59 145.584 180.661 146.635 181.097C147.685 181.534 148.335 182.825 147.641 185.282C149.867 182.317 152.76 180.617 154.933 179.504C157.105 178.4 159.278 177.625 161.451 177.198C165.662 176.369 168.778 176.939 170.817 178.907C172.856 180.884 173.871 183.804 173.871 187.668C173.871 191.337 173.043 195.352 171.378 199.715C169.713 204.087 167.461 208.209 164.611 212.1C166.107 211.13 167.55 209.946 168.939 208.548C170.328 207.15 171.636 205.618 172.856 203.953C174.076 202.288 175.198 200.534 176.213 198.709C177.228 196.875 178.083 195.085 178.76 193.322C179.098 192.512 179.588 191.871 180.238 191.399C180.879 190.936 181.546 190.633 182.223 190.5C183.105 190.322 183.906 190.402 184.618 190.74C185.331 191.079 185.687 191.72 185.687 192.663C185.687 192.797 185.687 192.966 185.687 193.171C185.687 193.376 185.518 193.99 185.179 195.005C183.959 198.709 182.294 202.226 180.193 205.565C178.092 208.904 175.625 211.896 172.812 214.558C169.998 217.22 166.909 219.455 163.543 221.28C160.186 223.097 156.634 224.379 152.903 225.118C150.054 225.679 147.204 225.91 144.346 225.795C141.497 225.679 138.648 225.225 135.79 224.432C134.704 228.448 133.688 232.33 132.736 236.087C131.783 239.836 130.991 243.273 130.341 246.389C129.691 249.505 129.263 252.506 128.961 254.821C128.435 258.774 127.438 263.983 122.265 264.401ZM141.506 216.116C145.878 215.983 149.404 214.674 152.262 211.326C153.633 209.714 154.933 208.094 156.082 206.313C157.266 204.479 158.45 202.271 159.331 200.276C159.919 198.95 160.329 197.498 160.4 196.038C160.471 194.685 160.525 193.215 159.946 191.96C159.714 191.461 159.394 191.016 159.002 190.633C158.717 190.357 158.388 190.108 158.014 189.983C157.471 189.805 156.874 189.894 156.313 190.028C153.455 190.714 151.184 192.548 149.172 194.613C147.783 196.047 147.053 196.697 145.637 198.326C144.222 199.947 143.198 201.71 142.174 203.339C141.631 205.013 140.509 208.521 139.966 210.222C139.423 211.922 139.111 213.071 138.568 214.807C139.244 215.626 140.304 216.152 141.506 216.116Z" fill="white"/>
<path d="M221.293 176.904C222.727 176.013 224.214 174.883 225.202 173.672C226.404 172.185 228.639 170.226 229.609 169.861C230.571 169.496 229.627 170.947 230.42 171.036C231.354 171.143 232.093 171.481 232.637 172.06C233.18 172.639 233.313 173.387 233.037 174.304C232.948 174.607 232.841 174.838 232.726 174.981C231.319 177.75 229.805 179.201 228.06 180.821C226.315 182.442 223.795 182.86 222.299 184.205C218.586 187.562 212.826 191.996 209.122 191.283C206.735 190.829 202.604 184.606 207.572 180.679C212.932 176.441 215.399 180.59 221.293 176.904Z" fill="white"/>
<path d="M318.425 170.858C316.715 172.728 313.145 176.459 311.008 178.328C311.204 178.684 311.515 179.13 311.515 179.13C311.907 179.673 312.388 180.056 312.976 180.296C313.554 180.536 314.187 180.652 314.872 180.652C315.549 180.652 316.217 180.581 316.867 180.456C318.549 180.127 320.232 179.406 321.915 178.293C323.598 177.18 325.165 175.853 326.625 174.304C328.085 172.755 329.394 171.054 330.561 169.202C331.727 167.359 332.635 165.525 333.276 163.708C333.534 162.943 333.953 162.346 334.541 161.91C335.119 161.473 335.734 161.189 336.384 161.064C338.645 160.619 339.785 161.527 339.785 163.788C339.206 167.145 337.986 170.475 336.143 173.778C334.3 177.091 332.065 180.1 329.448 182.825C326.83 185.54 323.927 187.864 320.758 189.788C317.588 191.711 314.382 192.993 311.141 193.634C308.613 194.133 306.431 194.177 304.588 193.768C302.745 193.358 301.223 192.619 300.021 191.559C298.819 190.5 297.919 189.129 297.305 187.437C296.691 185.745 296.379 183.902 296.379 181.89C296.379 178.72 297.047 175.265 298.373 171.544C299.7 167.822 301.481 164.278 303.716 160.921C305.951 157.565 308.533 154.662 311.48 152.205C314.427 149.747 317.517 148.198 320.749 147.557C323.464 147.023 325.405 147.281 326.572 148.349C327.738 149.418 328.317 150.887 328.317 152.766C328.317 154.511 327.97 156.487 327.008 158.606C325.94 160.939 321.692 167.305 318.425 170.858ZM314.293 159.247C310.776 163.29 309.209 168.223 309.396 169.594C310.118 169.14 315.015 165.017 317.338 162.31C320.348 158.802 321.514 156.238 321.79 154.52C319.155 155.081 317.018 156.113 314.293 159.247Z" fill="white"/>
<path d="M263.524 190.357C259.855 193.812 256.196 196.777 252.759 199.35C249.723 201.621 245.467 204.292 242.101 206.081C238.486 208.005 235.174 208.975 231.693 209.661C228.915 210.213 226.52 210.284 224.481 209.875C222.451 209.474 220.768 208.708 219.45 207.577C218.123 206.455 217.162 205.031 216.547 203.312C215.933 201.594 215.63 199.706 215.63 197.641C215.63 194.48 216.28 191.061 217.562 187.384C218.853 183.706 220.563 180.26 222.691 177.028C224.819 173.805 227.285 171.009 230.09 168.65C232.895 166.29 235.815 164.812 238.851 164.207C240.525 163.877 242.012 163.869 243.303 164.198C244.594 164.527 245.654 165.124 246.5 165.988C247.337 166.851 248.147 167.76 248.574 168.997C248.993 170.235 249.073 171.09 249.082 172.639C249.091 174.9 248.316 176.289 247.016 178.124C245.6 180.127 240.507 182.291 239.733 180.038C238.958 177.785 242.279 170.279 236.946 175.167C232.761 179.005 231.621 182.611 230.241 186.048C229.467 187.98 229.342 190.393 229.342 191.809C229.342 193.937 230.731 195.477 232.084 196.083C233.438 196.688 235.121 196.786 237.115 196.394C238.664 196.091 240.303 195.717 242.021 194.996C243.953 194.186 245.369 193.563 247.283 192.236C249.02 191.034 253.151 187.864 256.837 185.086L263.524 190.357Z" fill="white"/>
</g>
</g>
<defs>
<filter id="filter0_ddd" x="79.6442" y="33.2309" width="344.621" height="353.1" filterUnits="userSpaceOnUse" color-interpolation-filters="sRGB">
<feFlood flood-opacity="0" result="BackgroundImageFix"/>
<feColorMatrix in="SourceAlpha" type="matrix" values="0 0 0 0 0 0 0 0 0 0 0 0 0 0 0 0 0 0 127 0"/>
<feOffset/>
<feGaussianBlur stdDeviation="28.8845"/>
<feColorMatrix type="matrix" values="0 0 0 0 1 0 0 0 0 0.145833 0 0 0 0 0.480706 0 0 0 1 0"/>
<feBlend mode="normal" in2="BackgroundImageFix" result="effect1_dropShadow"/>
<feColorMatrix in="SourceAlpha" type="matrix" values="0 0 0 0 0 0 0 0 0 0 0 0 0 0 0 0 0 0 127 0"/>
<feOffset dy="7.70254"/>
<feColorMatrix type="matrix" values="0 0 0 0 0 0 0 0 0 0.941176 0 0 0 0 1 0 0 0 1 0"/>
<feBlend mode="normal" in2="effect1_dropShadow" result="effect2_dropShadow"/>
<feColorMatrix in="SourceAlpha" type="matrix" values="0 0 0 0 0 0 0 0 0 0 0 0 0 0 0 0 0 0 127 0"/>
<feOffset dy="3.85127"/>
<feColorMatrix type="matrix" values="0 0 0 0 0.0156863 0 0 0 0 0.0823529 0 0 0 0 0.141176 0 0 0 1 0"/>
<feBlend mode="normal" in2="effect2_dropShadow" result="effect3_dropShadow"/>
<feBlend mode="normal" in="SourceGraphic" in2="effect3_dropShadow" result="shape"/>
</filter>
<filter id="filter1_ddd" x="0.958199" y="0.255928" width="480.106" height="399.093" filterUnits="userSpaceOnUse" color-interpolation-filters="sRGB">
<feFlood flood-opacity="0" result="BackgroundImageFix"/>
<feColorMatrix in="SourceAlpha" type="matrix" values="0 0 0 0 0 0 0 0 0 0 0 0 0 0 0 0 0 0 127 0"/>
<feOffset/>
<feGaussianBlur stdDeviation="57.7691"/>
<feColorMatrix type="matrix" values="0 0 0 0 1 0 0 0 0 0.145833 0 0 0 0 0.480706 0 0 0 0.5 0"/>
<feBlend mode="normal" in2="BackgroundImageFix" result="effect1_dropShadow"/>
<feColorMatrix in="SourceAlpha" type="matrix" values="0 0 0 0 0 0 0 0 0 0 0 0 0 0 0 0 0 0 127 0"/>
<feOffset dy="7.70254"/>
<feColorMatrix type="matrix" values="0 0 0 0 1 0 0 0 0 0.145833 0 0 0 0 0.480706 0 0 0 1 0"/>
<feBlend mode="normal" in2="effect1_dropShadow" result="effect2_dropShadow"/>
<feColorMatrix in="SourceAlpha" type="matrix" values="0 0 0 0 0 0 0 0 0 0 0 0 0 0 0 0 0 0 127 0"/>
<feOffset dy="3.85127"/>
<feColorMatrix type="matrix" values="0 0 0 0 0 0 0 0 0 0 0 0 0 0 0 0 0 0 1 0"/>
<feBlend mode="normal" in2="effect2_dropShadow" result="effect3_dropShadow"/>
<feBlend mode="normal" in="SourceGraphic" in2="effect3_dropShadow" result="shape"/>
</filter>
<filter id="filter2_d" x="116.496" y="115.794" width="249.029" height="152.494" filterUnits="userSpaceOnUse" color-interpolation-filters="sRGB">
<feFlood flood-opacity="0" result="BackgroundImageFix"/>
<feColorMatrix in="SourceAlpha" type="matrix" values="0 0 0 0 0 0 0 0 0 0 0 0 0 0 0 0 0 0 127 0"/>
<feOffset dy="3.85127"/>
<feColorMatrix type="matrix" values="0 0 0 0 0.0156863 0 0 0 0 0.0823529 0 0 0 0 0.141176 0 0 0 1 0"/>
<feBlend mode="normal" in2="BackgroundImageFix" result="effect1_dropShadow"/>
<feBlend mode="normal" in="SourceGraphic" in2="effect1_dropShadow" result="shape"/>
</filter>
</defs>
</svg>
