<svg width="274" height="225" viewBox="0 0 274 225" fill="none" xmlns="http://www.w3.org/2000/svg">
<g filter="url(#filter0_ddd)">
<path d="M141.083 191.81C111.469 191.81 84.9089 174.175 73.4089 146.888C72.8201 145.491 73.4749 143.873 74.878 143.284C76.2756 142.695 77.8934 143.35 78.4821 144.753C89.1183 169.998 113.692 186.308 141.089 186.308C178.533 186.308 208.994 155.846 208.994 118.402C208.994 114.6 208.675 110.787 208.053 107.073C207.8 105.576 208.812 104.157 210.309 103.903C211.806 103.656 213.225 104.663 213.478 106.159C214.155 110.176 214.496 114.297 214.496 118.402C214.491 158.878 181.564 191.81 141.083 191.81Z" fill="#FF257B"/>
<path d="M75.6758 94.3897C75.3291 94.3897 74.977 94.3237 74.6358 94.1861C73.2272 93.6084 72.5559 92.0016 73.1337 90.5985C84.4796 62.8994 111.155 45 141.089 45C159.235 45 176.662 51.6744 190.148 63.8018C191.276 64.8197 191.37 66.5585 190.357 67.6865C189.339 68.8145 187.6 68.908 186.472 67.8956C173.998 56.6816 157.882 50.5079 141.094 50.5079C113.4 50.5079 88.7275 67.0647 78.2289 92.6894C77.7832 93.7459 76.7597 94.3897 75.6758 94.3897Z" fill="#FF257B"/>
</g>
<g filter="url(#filter1_ddd)">
<path d="M126.16 125.247C126.931 124.813 127.674 124.526 128.389 124.383C129.72 124.119 130.887 124.262 131.888 124.807C132.89 125.352 133.385 126.216 133.385 127.393C133.385 128.059 133.203 128.763 132.846 129.501C132.692 129.836 132.307 130.772 131.69 132.307C131.074 133.837 130.419 135.57 129.731 137.501C129.038 139.432 128.422 141.358 127.888 143.284C127.349 145.21 127.079 146.762 127.079 147.939C127.079 148.352 127.145 148.77 127.272 149.21C127.398 149.645 127.723 149.772 128.235 149.711C129.577 149.546 130.705 148.836 131.63 147.708C132.477 146.668 133.913 144.951 134.607 143.631C135.3 142.316 135.949 141.298 136.488 140.01C137.028 138.723 138.502 135.46 138.711 134.954C138.964 134.337 139.421 134.788 139.883 134.442C140.346 134.095 140.731 134.761 141.292 134.651C141.958 134.519 140.874 135.245 141.413 135.493C141.952 135.746 142.222 136.23 142.222 136.945C142.222 137.149 142.194 137.309 142.145 137.424C141.787 139.493 141.171 141.743 140.302 144.17C139.432 146.597 138.75 148.192 137.446 150.349C136.136 152.506 133.556 155.197 131.839 156.793C130.122 158.388 127.47 159.549 125.318 159.973C123.321 160.369 121.72 160.133 120.515 159.269C119.31 158.405 118.451 157.128 117.94 155.434C116.25 157.513 114.325 159.324 112.173 160.881C110.022 162.433 107.766 163.445 105.411 163.907C103.771 164.232 102.324 164.237 101.069 163.918C99.8148 163.605 98.7638 163.043 97.9164 162.234C97.0691 161.431 96.4308 160.402 95.9961 159.153C95.5614 157.904 95.3413 156.539 95.3413 155.054C95.3413 152.49 95.9466 149.683 97.1461 146.624C98.3511 143.57 99.9523 140.649 101.95 137.87C103.947 135.091 106.269 132.659 108.905 130.574C111.546 128.488 114.275 127.168 117.092 126.612C118.171 126.397 120.08 126.408 120.614 126.458C121.142 126.507 123.178 127.096 123.437 127.817C124.185 126.645 125.396 125.682 126.16 125.247ZM109.141 153.266C110.148 152.49 111.172 151.532 112.212 150.388C113.252 149.249 114.292 148.011 115.332 146.674C116.372 145.342 117.329 144.01 118.215 142.679C118.655 140.885 119.112 139.201 119.585 137.622C120.058 136.043 120.515 134.662 120.955 133.473C118.936 134.26 116.63 135.509 114.644 137.254C112.657 138.992 110.781 140.72 109.174 142.745C107.568 144.77 106.236 146.712 105.482 148.605C103.369 153.915 105.394 156.154 109.141 153.266Z" fill="white"/>
<path d="M174.125 139.983C171.209 142.728 168.303 145.083 165.569 147.125C163.159 148.924 159.775 151.054 157.1 152.473C154.228 153.997 151.598 154.768 148.83 155.318C146.624 155.753 144.714 155.813 143.102 155.489C141.49 155.169 140.153 154.559 139.102 153.667C138.051 152.776 137.281 151.642 136.797 150.278C136.312 148.913 136.065 147.411 136.065 145.771C136.065 143.262 136.576 140.544 137.6 137.628C138.623 134.711 139.982 131.966 141.672 129.402C143.361 126.837 145.325 124.62 147.554 122.744C149.782 120.867 152.104 119.69 154.509 119.217C155.84 118.952 157.018 118.952 158.047 119.211C159.07 119.47 159.918 119.943 160.583 120.631C161.249 121.319 161.893 122.039 162.229 123.019C162.559 124.004 162.625 124.686 162.63 125.913C162.641 127.707 162.02 128.818 160.991 130.271C159.863 131.867 155.818 133.583 155.202 131.79C154.586 129.996 157.227 124.037 152.99 127.921C149.661 130.97 148.764 133.831 147.664 136.566C147.048 138.095 146.948 140.016 146.948 141.144C146.948 142.833 148.054 144.06 149.127 144.539C150.206 145.017 151.537 145.1 153.128 144.786C154.36 144.544 155.664 144.247 157.023 143.675C158.564 143.031 159.681 142.536 161.205 141.479C162.581 140.527 165.866 138.007 168.793 135.801L174.125 139.983Z" fill="white"/>
<path d="M182.89 131.702C181.537 133.182 178.708 136.137 177.019 137.617C177.173 137.903 177.421 138.249 177.421 138.249C177.729 138.679 178.114 138.987 178.576 139.174C179.038 139.366 179.539 139.46 180.073 139.454C180.612 139.449 181.135 139.399 181.647 139.295C182.978 139.031 184.31 138.459 185.647 137.584C186.978 136.703 188.222 135.652 189.378 134.425C190.533 133.198 191.568 131.85 192.492 130.386C193.416 128.923 194.132 127.476 194.643 126.04C194.847 125.434 195.183 124.961 195.645 124.614C196.107 124.268 196.591 124.042 197.103 123.943C198.897 123.591 199.794 124.306 199.794 126.1C199.331 128.752 198.374 131.393 196.91 134.013C195.452 136.632 193.68 139.02 191.606 141.171C189.532 143.323 187.237 145.16 184.728 146.685C182.219 148.209 179.677 149.221 177.118 149.727C175.121 150.124 173.388 150.157 171.929 149.832C170.471 149.507 169.266 148.924 168.314 148.088C167.368 147.251 166.647 146.162 166.163 144.825C165.679 143.488 165.431 142.024 165.431 140.434C165.431 137.925 165.959 135.19 167.005 132.241C168.056 129.292 169.464 126.491 171.231 123.833C172.997 121.175 175.049 118.875 177.382 116.928C179.715 114.98 182.158 113.753 184.723 113.246C186.874 112.823 188.415 113.032 189.334 113.874C190.258 114.716 190.715 115.882 190.715 117.368C190.715 118.749 190.44 120.312 189.675 121.995C188.844 123.85 185.476 128.884 182.89 131.702ZM179.622 122.507C176.838 125.709 175.594 129.611 175.743 130.695C176.315 130.337 180.189 127.069 182.032 124.928C184.414 122.149 185.339 120.119 185.559 118.754C183.468 119.206 181.773 120.031 179.622 122.507Z" fill="white"/>
<g filter="url(#filter2_d)">
<path d="M117.203 112.504C116.157 115.238 114.693 117.571 112.812 119.514C110.924 121.451 108.597 122.694 105.829 123.239C104.382 123.525 103.089 123.552 101.944 123.316C100.8 123.079 99.8479 122.617 99.083 121.924C98.3237 121.23 97.7405 120.356 97.3388 119.288C96.9371 118.226 96.739 117.032 96.739 115.706C96.739 113.538 97.2232 111.288 98.1862 108.949C99.1491 106.611 100.415 104.437 101.977 102.423C103.54 100.409 105.328 98.6595 107.337 97.1794C109.345 95.6992 111.386 94.7528 113.477 94.3401C115.403 93.9605 116.768 94.1421 117.571 94.8849C118.375 95.6277 118.776 96.6457 118.776 97.9277C118.776 98.4504 118.655 99.0172 118.413 99.6225C118.732 100.123 118.985 100.761 119.167 101.548C119.348 102.335 119.486 103.023 119.436 103.634C119.084 107.931 118.336 109.527 117.203 112.504ZM112.173 103.293C111.199 103.854 108.575 106.297 107.931 107.084C107.287 107.871 106.698 108.712 106.154 109.604C105.609 110.495 105.158 111.398 104.8 112.311C104.437 113.224 104.261 114.066 104.261 114.826C104.261 115.387 104.409 115.948 104.712 116.509C105.015 117.071 105.625 117.263 106.55 117.082C107.634 116.867 108.52 116.135 109.439 115.068C111.106 113.125 113.186 109.527 113.708 108.261C112.784 108.454 111.326 108.058 111.232 106.655C111.139 105.246 111.364 104.118 112.173 103.293Z" fill="white"/>
<path d="M161.558 111.706C160.914 111.491 160.402 111.15 160.022 110.688C159.643 110.22 159.368 109.653 159.208 108.982C159.048 108.311 158.905 107.65 158.784 106.99C158.663 106.093 158.52 105.257 158.361 104.487C158.201 103.716 157.898 103.194 157.458 102.918C155.774 104.333 154.278 105.703 152.974 107.023C151.67 108.344 150.734 109.642 150.173 110.919C150.09 111.255 150.052 111.546 150.052 111.783C150.052 112.019 150.052 112.245 150.052 112.443C150.052 113.285 149.87 113.885 149.513 114.237C149.15 114.589 148.687 114.82 148.126 114.93C147.724 115.007 147.284 115.018 146.8 114.952C146.316 114.886 145.865 114.677 145.446 114.319C145.023 113.962 144.676 113.428 144.395 112.724C144.115 112.019 143.972 111.062 143.972 109.857C143.972 108.014 144.291 105.681 144.935 102.863C145.579 100.046 146.371 97.0143 147.312 93.7569C148.253 90.4995 149.265 87.132 150.349 83.649C151.433 80.1659 152.413 76.8535 153.298 73.7061C153.7 72.2204 154.47 71.0264 155.615 70.1185C156.759 69.2106 157.909 68.6439 159.076 68.4128C160.121 68.2092 160.991 68.2862 161.695 68.6494C162.399 69.0125 162.746 69.6563 162.746 70.5752C162.746 71.1365 162.603 71.7252 162.322 72.3415C161.48 74.2343 160.639 76.2867 159.797 78.4987C158.955 80.7107 158.13 82.9722 157.332 85.2777C156.528 87.5832 155.769 89.8887 155.043 92.1997C154.322 94.5107 153.656 96.7282 153.056 98.8521C153.937 97.9938 154.834 97.1684 155.736 96.365C156.638 95.5672 157.48 94.7638 158.262 93.9715C159.043 93.1736 159.758 92.3813 160.397 91.5944C161.04 90.8076 161.541 89.9932 161.899 89.1624V88.5626C161.899 87.8418 162.036 87.1595 162.322 86.5212C162.603 85.8829 162.972 85.3272 163.434 84.854C163.896 84.3808 164.408 83.9901 164.969 83.6765C165.53 83.3628 166.114 83.1482 166.713 83.0327C167.797 82.8181 168.771 82.9777 169.63 83.5114C170.493 84.0451 170.923 85.0521 170.923 86.5377C170.923 88.2655 170.328 89.9657 169.145 91.644C167.962 93.3222 166.504 94.9729 164.782 96.6016C165.222 97.1189 165.503 97.6911 165.624 98.3294C165.745 98.9677 165.844 99.6225 165.926 100.288C166.009 101.235 166.047 102.06 166.047 102.764C166.047 103.469 166.328 103.76 166.889 103.65C167.412 103.546 167.973 103.072 168.573 102.236C169.173 101.4 169.756 100.448 170.317 99.3914C170.879 98.3404 171.368 97.306 171.792 96.299C172.216 95.2921 172.502 94.5933 172.667 94.2026C172.865 93.7239 173.157 93.3442 173.542 93.0691C173.921 92.794 174.312 92.6179 174.714 92.5354C175.237 92.4308 175.704 92.4803 176.128 92.6784C176.552 92.8765 176.761 93.2562 176.761 93.8174C176.761 93.9 176.75 93.9605 176.733 94.0045C176.711 94.0485 176.706 94.1091 176.706 94.1916C176.387 95.8203 175.88 97.5866 175.204 99.4849C174.521 101.383 173.657 103.183 172.617 104.872C171.572 106.561 170.339 108.041 168.914 109.307C167.489 110.572 165.877 111.381 164.067 111.739C163.038 111.926 162.196 111.92 161.558 111.706Z" fill="white"/>
<path d="M213.836 87.4457C213.423 89.0689 212.636 90.8516 211.657 92.7555C210.722 94.5768 209.896 96.1395 208.746 97.8452C207.64 99.4849 206.474 100.883 205.131 102.132C203.789 103.381 202.127 104.223 199.656 104.69C198.534 104.905 197.571 104.872 196.768 104.569C195.964 104.267 195.304 103.755 194.781 103.034C194.258 102.313 193.879 101.405 193.637 100.31C193.395 99.2153 193.273 97.9828 193.273 96.6182C193.273 95.094 193.417 93.4433 193.697 91.6605C193.978 89.8777 194.341 88.0619 194.781 86.2076C195.221 84.3533 195.722 82.4825 196.283 80.5841C196.845 78.6858 196.823 78.7133 197.428 76.9911L194.6 77.5523C193.758 77.7174 193.042 77.5578 192.465 77.0736C191.881 76.5894 191.59 75.9401 191.59 75.1367C191.59 74.2949 191.881 73.5245 192.465 72.8257C193.048 72.1269 193.758 71.6977 194.6 71.5327L199.838 70.4982C200.278 69.3702 200.669 68.3798 201.01 67.5269C201.351 66.6795 201.621 66.0137 201.824 65.5295C202.507 63.9888 203.37 62.8058 204.41 61.9805C205.456 61.1551 206.496 60.6379 207.541 60.4288C208.587 60.2252 209.495 60.3132 210.281 60.6984C212.658 61.8759 210.799 64.6711 210.105 66.2889C209.77 67.0757 209.434 67.8681 209.104 68.6604L210.887 68.3082C211.729 68.1432 212.444 68.2917 213.022 68.7594C213.605 69.2271 213.897 69.8819 213.897 70.7238C213.897 71.5272 213.605 72.2865 213.022 73.0018C212.438 73.7171 211.729 74.1628 210.887 74.3279L206.578 75.1808C205.857 77.1671 205.725 77.3927 204.983 79.5277C204.24 81.6626 203.568 83.7205 202.969 85.7014C202.369 87.6878 201.874 89.487 201.494 91.1103C201.114 92.7335 200.922 94.021 200.922 94.984C200.922 95.3471 200.971 95.7378 201.07 96.156C201.169 96.5797 201.445 96.6677 201.885 96.6567C203.029 96.6292 204.212 95.9139 204.856 95.0995C206.149 93.4708 208.306 89.8997 209.324 88.1059C209.588 87.6437 210.397 86.3782 210.788 86.1196C211.178 85.8665 211.575 85.7069 211.976 85.6519C212.499 85.5803 212.961 85.6464 213.363 85.8775C214.056 86.2901 213.836 87.4457 213.836 87.4457Z" fill="white"/>
<path d="M63.5649 152.16C61.0833 152.363 59.5922 151.197 60.0984 146.426C60.302 144.511 60.7477 141.848 61.3584 138.646C61.9692 135.443 62.723 131.966 63.6254 128.224C64.5278 124.482 65.5128 120.658 66.5802 116.752C67.6477 112.85 68.6436 109.252 69.568 105.967C69.7771 105.169 70.1568 104.575 70.597 103.942C71.0372 103.309 71.6535 102.797 72.3082 102.352C72.8915 101.95 73.6893 101.477 74.3166 101.185C74.9439 100.894 75.5767 100.684 76.2039 100.558C77.1669 100.365 77.9757 100.409 78.625 100.679C79.2743 100.949 79.676 101.746 79.2468 103.265C80.6224 101.433 82.4107 100.382 83.7533 99.694C85.0959 99.0117 86.4384 98.533 87.781 98.2689C90.3837 97.7571 92.3095 98.1093 93.5696 99.3253C94.8296 100.547 95.4569 102.352 95.4569 104.74C95.4569 107.007 94.9452 109.488 93.9162 112.184C92.8873 114.886 91.4952 117.434 89.7344 119.838C90.6588 119.239 91.5502 118.507 92.4086 117.643C93.2669 116.779 94.0758 115.833 94.8296 114.804C95.5835 113.775 96.2768 112.691 96.904 111.563C97.5313 110.429 98.0596 109.323 98.4777 108.234C98.6868 107.733 98.9895 107.337 99.3911 107.045C99.7873 106.759 100.2 106.572 100.618 106.489C101.163 106.379 101.658 106.429 102.098 106.638C102.539 106.847 102.759 107.243 102.759 107.827C102.759 107.909 102.759 108.014 102.759 108.14C102.759 108.267 102.654 108.646 102.445 109.274C101.691 111.563 100.662 113.736 99.3636 115.8C98.0651 117.863 96.5409 119.712 94.8021 121.357C93.0633 123.002 91.154 124.383 89.0741 125.511C86.9997 126.634 84.8042 127.426 82.4987 127.883C80.7379 128.23 78.9772 128.373 77.2109 128.301C75.4501 128.23 73.6893 127.949 71.9231 127.459C71.2518 129.941 70.6245 132.34 70.0357 134.662C69.447 136.978 68.9573 139.102 68.5556 141.028C68.1539 142.954 67.8898 144.808 67.7027 146.239C67.3781 148.682 66.7618 151.901 63.5649 152.16ZM75.4556 122.32C78.1573 122.237 80.3363 121.429 82.1025 119.36C82.9499 118.364 83.7533 117.362 84.4631 116.262C85.1949 115.128 85.9267 113.764 86.4715 112.531C86.8346 111.711 87.0877 110.814 87.1318 109.912C87.1758 109.076 87.2088 108.168 86.8511 107.392C86.7081 107.084 86.51 106.809 86.2679 106.572C86.0918 106.401 85.8882 106.247 85.6571 106.17C85.3214 106.06 84.9528 106.115 84.6061 106.198C82.8399 106.622 81.4367 107.755 80.1932 109.032C79.3348 109.917 78.8836 110.319 78.0087 111.326C77.1339 112.328 76.5011 113.417 75.8683 114.424C75.5327 115.458 74.8393 117.626 74.5037 118.677C74.1681 119.728 73.9755 120.438 73.6398 121.511C74.058 122.017 74.7128 122.342 75.4556 122.32Z" fill="white"/>
<path d="M124.763 98.0873C125.649 97.5371 126.568 96.8383 127.178 96.0899C127.921 95.171 129.302 93.9605 129.902 93.7349C130.496 93.5093 129.913 94.4062 130.403 94.4612C130.981 94.5272 131.437 94.7363 131.773 95.094C132.109 95.4517 132.191 95.9138 132.021 96.4806C131.966 96.6677 131.9 96.8107 131.828 96.8988C130.959 98.61 130.023 99.5069 128.945 100.508C127.866 101.51 126.309 101.768 125.385 102.599C123.09 104.674 119.53 107.414 117.241 106.974C115.766 106.693 113.213 102.847 116.284 100.42C119.596 97.8012 121.12 100.365 124.763 98.0873Z" fill="white"/>
<path d="M184.789 94.3512C183.732 95.5067 181.526 97.8122 180.205 98.9677C180.326 99.1878 180.519 99.4629 180.519 99.4629C180.761 99.7985 181.058 100.035 181.421 100.184C181.779 100.332 182.17 100.404 182.593 100.404C183.012 100.404 183.424 100.36 183.826 100.283C184.866 100.079 185.906 99.6335 186.946 98.9457C187.986 98.2579 188.954 97.438 189.857 96.4806C190.759 95.5232 191.568 94.4722 192.289 93.3277C193.009 92.1887 193.571 91.0552 193.967 89.9327C194.126 89.4595 194.385 89.0908 194.748 88.8212C195.106 88.5516 195.485 88.3755 195.887 88.2985C197.285 88.0234 197.989 88.5846 197.989 89.9822C197.631 92.0567 196.878 94.1145 195.739 96.1559C194.6 98.2028 193.218 100.063 191.601 101.746C189.983 103.425 188.189 104.861 186.23 106.049C184.272 107.238 182.291 108.03 180.288 108.426C178.725 108.734 177.377 108.762 176.238 108.509C175.099 108.256 174.158 107.799 173.415 107.144C172.672 106.489 172.117 105.642 171.737 104.597C171.357 103.551 171.165 102.412 171.165 101.169C171.165 99.2098 171.577 97.0749 172.397 94.7748C173.217 92.4748 174.318 90.2849 175.699 88.2105C177.08 86.1361 178.676 84.3423 180.497 82.8236C182.318 81.3049 184.228 80.3475 186.225 79.9513C187.903 79.6212 189.103 79.7808 189.823 80.441C190.544 81.1013 190.902 82.0092 190.902 83.1702C190.902 84.2487 190.687 85.4703 190.093 86.7798C189.433 88.2215 186.808 92.1557 184.789 94.3512ZM182.236 87.176C180.062 89.6741 179.094 92.7224 179.209 93.5698C179.655 93.2892 182.681 90.7416 184.117 89.0688C185.977 86.9009 186.698 85.3162 186.869 84.2542C185.24 84.6009 183.919 85.2392 182.236 87.176Z" fill="white"/>
<path d="M150.861 106.401C148.594 108.536 146.332 110.369 144.208 111.959C142.332 113.362 139.702 115.013 137.622 116.119C135.388 117.307 133.341 117.907 131.19 118.331C129.473 118.672 127.993 118.716 126.733 118.463C125.478 118.215 124.438 117.742 123.624 117.043C122.804 116.35 122.21 115.469 121.83 114.407C121.45 113.346 121.263 112.179 121.263 110.902C121.263 108.949 121.665 106.836 122.457 104.564C123.255 102.291 124.312 100.162 125.627 98.1643C126.942 96.1725 128.466 94.4447 130.199 92.9866C131.932 91.5284 133.737 90.615 135.614 90.2409C136.648 90.0373 137.567 90.0318 138.365 90.2354C139.163 90.4389 139.817 90.8076 140.34 91.3413C140.857 91.8751 141.358 92.4363 141.622 93.2012C141.881 93.966 141.93 94.4942 141.936 95.4516C141.941 96.8493 141.463 97.7076 140.659 98.8411C139.784 100.079 136.637 101.416 136.158 100.024C135.68 98.632 137.732 93.9935 134.436 97.0143C131.85 99.3859 131.146 101.614 130.293 103.738C129.814 104.932 129.737 106.423 129.737 107.298C129.737 108.613 130.595 109.565 131.432 109.94C132.268 110.314 133.308 110.374 134.541 110.132C135.498 109.945 136.51 109.714 137.572 109.268C138.766 108.767 139.641 108.382 140.824 107.562C141.897 106.82 144.45 104.861 146.728 103.144L150.861 106.401Z" fill="white"/>
</g>
</g>
<defs>
<filter id="filter0_ddd" x="42.9264" y="15" width="201.57" height="206.81" filterUnits="userSpaceOnUse" color-interpolation-filters="sRGB">
<feFlood flood-opacity="0" result="BackgroundImageFix"/>
<feColorMatrix in="SourceAlpha" type="matrix" values="0 0 0 0 0 0 0 0 0 0 0 0 0 0 0 0 0 0 127 0"/>
<feOffset/>
<feGaussianBlur stdDeviation="15"/>
<feColorMatrix type="matrix" values="0 0 0 0 1 0 0 0 0 0.145833 0 0 0 0 0.480706 0 0 0 1 0"/>
<feBlend mode="normal" in2="BackgroundImageFix" result="effect1_dropShadow"/>
<feColorMatrix in="SourceAlpha" type="matrix" values="0 0 0 0 0 0 0 0 0 0 0 0 0 0 0 0 0 0 127 0"/>
<feOffset dy="4"/>
<feColorMatrix type="matrix" values="0 0 0 0 0 0 0 0 0 0.941176 0 0 0 0 1 0 0 0 1 0"/>
<feBlend mode="normal" in2="effect1_dropShadow" result="effect2_dropShadow"/>
<feColorMatrix in="SourceAlpha" type="matrix" values="0 0 0 0 0 0 0 0 0 0 0 0 0 0 0 0 0 0 127 0"/>
<feOffset dy="2"/>
<feColorMatrix type="matrix" values="0 0 0 0 0.0156863 0 0 0 0 0.0823529 0 0 0 0 0.141176 0 0 0 1 0"/>
<feBlend mode="normal" in2="effect2_dropShadow" result="effect3_dropShadow"/>
<feBlend mode="normal" in="SourceGraphic" in2="effect3_dropShadow" result="shape"/>
</filter>
<filter id="filter1_ddd" x="0" y="0.322418" width="273.897" height="223.832" filterUnits="userSpaceOnUse" color-interpolation-filters="sRGB">
<feFlood flood-opacity="0" result="BackgroundImageFix"/>
<feColorMatrix in="SourceAlpha" type="matrix" values="0 0 0 0 0 0 0 0 0 0 0 0 0 0 0 0 0 0 127 0"/>
<feOffset/>
<feGaussianBlur stdDeviation="30"/>
<feColorMatrix type="matrix" values="0 0 0 0 1 0 0 0 0 0.145833 0 0 0 0 0.480706 0 0 0 0.5 0"/>
<feBlend mode="normal" in2="BackgroundImageFix" result="effect1_dropShadow"/>
<feColorMatrix in="SourceAlpha" type="matrix" values="0 0 0 0 0 0 0 0 0 0 0 0 0 0 0 0 0 0 127 0"/>
<feOffset dy="4"/>
<feColorMatrix type="matrix" values="0 0 0 0 1 0 0 0 0 0.145833 0 0 0 0 0.480706 0 0 0 1 0"/>
<feBlend mode="normal" in2="effect1_dropShadow" result="effect2_dropShadow"/>
<feColorMatrix in="SourceAlpha" type="matrix" values="0 0 0 0 0 0 0 0 0 0 0 0 0 0 0 0 0 0 127 0"/>
<feOffset dy="2"/>
<feColorMatrix type="matrix" values="0 0 0 0 0 0 0 0 0 0 0 0 0 0 0 0 0 0 1 0"/>
<feBlend mode="normal" in2="effect2_dropShadow" result="effect3_dropShadow"/>
<feBlend mode="normal" in="SourceGraphic" in2="effect3_dropShadow" result="shape"/>
</filter>
<filter id="filter2_d" x="60" y="60.3224" width="153.897" height="93.859" filterUnits="userSpaceOnUse" color-interpolation-filters="sRGB">
<feFlood flood-opacity="0" result="BackgroundImageFix"/>
<feColorMatrix in="SourceAlpha" type="matrix" values="0 0 0 0 0 0 0 0 0 0 0 0 0 0 0 0 0 0 127 0"/>
<feOffset dy="2"/>
<feColorMatrix type="matrix" values="0 0 0 0 0.0156863 0 0 0 0 0.0823529 0 0 0 0 0.141176 0 0 0 1 0"/>
<feBlend mode="normal" in2="BackgroundImageFix" result="effect1_dropShadow"/>
<feBlend mode="normal" in="SourceGraphic" in2="effect1_dropShadow" result="shape"/>
</filter>
</defs>
</svg>
